<svg id="svg" version="1.1" xmlns="http://www.w3.org/2000/svg" xmlns:xlink="http://www.w3.org/1999/xlink" width="400" height="400" viewBox="0, 0, 400,400"><g id="svgg"><path id="path0" d="M166.550 86.300 C 166.949 90.491,167.933 95.975,168.398 96.600 C 168.562 96.820,168.919 97.692,169.192 98.539 C 171.313 105.121,178.633 111.965,185.700 113.974 C 186.525 114.208,187.810 114.584,188.556 114.810 C 190.664 115.447,203.062 115.332,205.636 114.650 C 214.843 112.213,220.712 107.598,224.012 100.200 C 224.503 99.100,225.061 97.887,225.252 97.505 C 225.443 97.123,225.600 96.484,225.600 96.085 C 225.600 95.686,225.762 95.189,225.959 94.980 C 226.437 94.474,226.819 91.808,227.058 87.300 L 227.255 83.600 219.127 83.640 C 214.657 83.661,210.010 83.796,208.800 83.940 L 206.600 84.200 206.356 86.800 C 205.683 93.956,202.913 96.966,197.000 96.966 C 192.573 96.966,190.710 95.870,188.902 92.200 C 188.159 90.691,187.884 89.620,187.261 85.800 L 187.000 84.200 183.600 83.940 C 181.730 83.797,177.071 83.662,173.246 83.640 L 166.293 83.600 166.550 86.300 M118.400 127.785 C 118.400 128.112,118.940 129.559,119.600 131.000 C 120.260 132.441,120.800 133.709,120.800 133.818 C 120.800 133.927,121.520 135.539,122.400 137.400 C 123.280 139.261,124.000 140.881,124.000 141.001 C 124.000 141.120,124.720 142.761,125.600 144.648 C 126.480 146.535,127.200 148.155,127.200 148.248 C 127.200 148.341,127.920 149.961,128.800 151.848 C 129.680 153.735,130.400 155.347,130.400 155.430 C 130.400 155.512,130.940 156.759,131.600 158.200 C 132.260 159.641,132.800 160.909,132.800 161.019 C 132.800 161.128,133.520 162.761,134.400 164.648 C 135.280 166.535,136.000 168.155,136.000 168.248 C 136.000 168.341,136.720 169.961,137.600 171.848 C 138.480 173.735,139.200 175.347,139.200 175.430 C 139.200 175.512,139.740 176.759,140.400 178.200 C 141.060 179.641,141.600 180.909,141.600 181.018 C 141.600 181.127,142.320 182.739,143.200 184.600 C 144.080 186.461,144.800 188.081,144.800 188.201 C 144.800 188.320,145.520 189.961,146.400 191.848 C 147.280 193.735,148.000 195.354,148.000 195.444 C 148.000 195.535,148.401 196.462,148.891 197.504 C 150.289 200.478,150.089 201.653,147.235 207.226 C 145.835 209.962,144.554 212.380,144.388 212.600 C 144.223 212.820,141.884 217.320,139.190 222.600 C 136.497 227.880,134.157 232.380,133.990 232.600 C 133.822 232.820,131.481 237.320,128.786 242.600 C 126.091 247.880,123.752 252.380,123.589 252.600 C 123.426 252.820,121.359 256.780,118.997 261.400 C 116.635 266.020,113.992 271.105,113.123 272.700 L 111.544 275.600 126.472 275.598 L 141.400 275.596 150.271 258.098 C 155.151 248.474,161.942 235.038,165.363 228.241 C 173.111 212.846,171.686 214.353,178.372 214.489 L 183.800 214.600 183.902 245.100 L 184.005 275.600 197.000 275.600 L 209.995 275.600 210.098 245.100 L 210.200 214.600 215.428 214.489 C 221.815 214.353,220.517 213.051,227.298 226.400 C 230.259 232.230,234.860 241.230,237.521 246.400 C 240.182 251.570,244.599 260.210,247.337 265.600 L 252.314 275.400 267.410 275.505 C 279.519 275.589,282.427 275.510,282.109 275.105 C 281.890 274.827,280.228 271.720,278.414 268.200 C 276.601 264.680,274.981 261.620,274.814 261.400 C 274.647 261.180,272.844 257.760,270.806 253.800 C 268.769 249.840,266.969 246.420,266.806 246.200 C 266.644 245.980,264.844 242.560,262.806 238.600 C 260.769 234.640,258.969 231.220,258.806 231.000 C 258.644 230.780,256.844 227.360,254.806 223.400 C 252.769 219.440,250.969 216.020,250.806 215.800 C 250.644 215.580,248.843 212.168,246.805 208.218 C 242.540 199.954,242.615 201.373,246.061 194.115 C 247.127 191.868,248.000 189.930,248.000 189.807 C 248.000 189.684,248.720 188.061,249.600 186.200 C 250.480 184.339,251.200 182.741,251.200 182.648 C 251.200 182.555,251.920 180.935,252.800 179.048 C 253.680 177.161,254.400 175.537,254.400 175.440 C 254.400 175.342,255.300 173.344,256.400 171.000 C 257.500 168.656,258.400 166.658,258.400 166.561 C 258.400 166.463,259.120 164.861,260.000 163.000 C 260.880 161.139,261.600 159.541,261.600 159.448 C 261.600 159.355,262.320 157.735,263.200 155.848 C 264.080 153.961,264.800 152.337,264.800 152.240 C 264.800 152.142,265.700 150.144,266.800 147.800 C 267.900 145.456,268.800 143.458,268.800 143.361 C 268.800 143.263,269.520 141.661,270.400 139.800 C 271.280 137.939,272.000 136.341,272.000 136.248 C 272.000 136.155,272.710 134.556,273.579 132.694 C 274.447 130.832,275.277 128.834,275.422 128.254 L 275.687 127.200 261.825 127.200 L 247.963 127.200 246.381 130.591 C 245.512 132.457,244.800 134.072,244.800 134.181 C 244.800 134.291,244.260 135.559,243.600 137.000 C 242.940 138.441,242.400 139.701,242.400 139.800 C 242.400 139.899,241.860 141.159,241.200 142.600 C 240.540 144.041,240.000 145.301,240.000 145.400 C 240.000 145.499,239.460 146.759,238.800 148.200 C 238.140 149.641,237.600 150.901,237.600 151.000 C 237.600 151.099,237.060 152.359,236.400 153.800 C 235.740 155.241,235.200 156.501,235.200 156.600 C 235.200 156.699,234.660 157.959,234.000 159.400 C 233.340 160.841,232.800 162.101,232.800 162.200 C 232.800 162.299,232.260 163.559,231.600 165.000 C 230.940 166.441,230.400 167.701,230.400 167.800 C 230.400 167.899,229.860 169.159,229.200 170.600 C 228.540 172.041,228.000 173.301,228.000 173.400 C 228.000 173.499,227.460 174.759,226.800 176.200 C 226.140 177.641,225.600 178.897,225.600 178.992 C 225.600 179.087,225.081 180.297,224.446 181.682 C 223.811 183.067,222.866 185.224,222.346 186.476 C 221.766 187.873,221.045 188.917,220.481 189.176 C 219.718 189.528,210.605 189.818,210.306 189.500 C 210.255 189.445,210.120 175.450,210.006 158.400 L 209.800 127.400 197.000 127.400 L 184.200 127.400 184.097 157.962 C 184.023 180.106,183.869 188.675,183.539 189.073 C 183.186 189.499,181.903 189.597,177.842 189.511 L 172.600 189.400 171.580 187.400 C 171.019 186.300,170.322 184.770,170.032 184.000 C 169.743 183.230,169.167 181.837,168.753 180.904 C 168.339 179.972,168.000 179.121,168.000 179.014 C 168.000 178.907,167.460 177.641,166.800 176.200 C 166.140 174.759,165.600 173.500,165.600 173.402 C 165.600 173.304,165.173 172.273,164.651 171.112 C 164.129 169.950,163.030 167.380,162.209 165.400 C 161.389 163.420,160.376 161.037,159.959 160.104 C 159.541 159.172,159.200 158.321,159.200 158.214 C 159.200 158.107,158.660 156.841,158.000 155.400 C 157.340 153.959,156.800 152.699,156.800 152.600 C 156.800 152.501,156.260 151.241,155.600 149.800 C 154.940 148.359,154.400 146.950,154.400 146.670 C 154.400 146.389,154.249 145.989,154.064 145.780 C 153.879 145.571,153.488 144.770,153.194 144.000 C 152.900 143.230,152.151 141.470,151.530 140.090 C 150.908 138.709,150.400 137.493,150.400 137.386 C 150.400 137.279,150.046 136.428,149.614 135.496 C 149.182 134.563,148.231 132.360,147.500 130.600 L 146.172 127.400 132.286 127.295 C 120.213 127.203,118.400 127.267,118.400 127.785 " stroke="none" fill="#050505" fill-rule="evenodd"></path><path id="path1" d="M96.042 28.260 C 95.647 28.707,95.044 28.831,93.969 28.687 C 92.895 28.543,92.391 28.646,92.239 29.042 C 92.122 29.349,91.698 29.600,91.297 29.600 C 90.897 29.600,89.863 29.960,89.000 30.400 C 88.137 30.840,87.109 31.200,86.715 31.200 C 86.322 31.200,86.000 31.337,86.000 31.505 C 86.000 31.805,85.687 32.008,83.375 33.200 C 81.819 34.002,81.374 34.380,77.877 37.877 C 74.380 41.374,74.002 41.819,73.200 43.375 C 72.008 45.687,71.805 46.000,71.505 46.000 C 71.337 46.000,71.200 46.322,71.200 46.715 C 71.200 47.109,70.840 48.137,70.400 49.000 C 69.960 49.863,69.600 50.897,69.600 51.297 C 69.600 51.698,69.349 52.122,69.042 52.239 C 68.647 52.391,68.542 52.895,68.685 53.955 C 68.826 55.012,68.695 55.647,68.243 56.100 C 67.254 57.089,67.254 342.111,68.243 343.100 C 68.695 343.553,68.826 344.188,68.685 345.245 C 68.542 346.305,68.647 346.809,69.042 346.961 C 69.349 347.078,69.600 347.502,69.600 347.903 C 69.600 348.303,69.960 349.337,70.400 350.200 C 70.840 351.063,71.200 352.091,71.200 352.485 C 71.200 352.878,71.337 353.200,71.505 353.200 C 71.805 353.200,72.008 353.513,73.200 355.825 C 74.514 358.374,80.826 364.686,83.375 366.000 C 85.687 367.192,86.000 367.395,86.000 367.695 C 86.000 367.863,86.322 368.000,86.715 368.000 C 87.109 368.000,88.137 368.360,89.000 368.800 C 89.863 369.240,90.897 369.600,91.297 369.600 C 91.698 369.600,92.122 369.851,92.239 370.158 C 92.391 370.553,92.895 370.658,93.955 370.515 C 95.012 370.374,95.647 370.505,96.100 370.957 C 97.088 371.946,296.512 371.946,297.500 370.957 C 297.953 370.505,298.588 370.374,299.645 370.515 C 300.705 370.658,301.209 370.553,301.361 370.158 C 301.478 369.851,301.902 369.600,302.303 369.600 C 302.703 369.600,303.737 369.240,304.600 368.800 C 305.463 368.360,306.491 368.000,306.885 368.000 C 307.278 368.000,307.600 367.863,307.600 367.695 C 307.600 367.395,307.913 367.192,310.225 366.000 C 312.774 364.686,319.086 358.374,320.400 355.825 C 321.592 353.513,321.795 353.200,322.095 353.200 C 322.263 353.200,322.400 352.878,322.400 352.485 C 322.400 352.091,322.760 351.063,323.200 350.200 C 323.640 349.337,324.000 348.303,324.000 347.903 C 324.000 347.502,324.251 347.078,324.558 346.961 C 324.953 346.809,325.058 346.305,324.915 345.245 C 324.774 344.188,324.905 343.553,325.357 343.100 C 326.346 342.111,326.346 57.089,325.357 56.100 C 324.905 55.647,324.774 55.012,324.915 53.955 C 325.058 52.895,324.953 52.391,324.558 52.239 C 324.251 52.122,324.000 51.698,324.000 51.297 C 324.000 50.897,323.640 49.863,323.200 49.000 C 322.760 48.137,322.400 47.109,322.400 46.715 C 322.400 46.322,322.263 46.000,322.095 46.000 C 321.795 46.000,321.592 45.687,320.400 43.375 C 319.086 40.826,312.774 34.514,310.225 33.200 C 307.913 32.008,307.600 31.805,307.600 31.505 C 307.600 31.337,307.278 31.200,306.885 31.200 C 306.491 31.200,305.463 30.840,304.600 30.400 C 303.737 29.960,302.703 29.600,302.303 29.600 C 301.902 29.600,301.478 29.349,301.361 29.042 C 301.209 28.647,300.705 28.542,299.645 28.685 C 298.588 28.826,297.953 28.695,297.500 28.243 C 296.523 27.266,96.908 27.283,96.042 28.260 M187.645 83.683 C 187.780 83.896,188.003 85.270,188.140 86.735 C 188.727 93.028,191.833 96.401,197.035 96.399 C 202.277 96.396,205.239 93.041,205.906 86.352 L 206.200 83.400 211.400 83.146 C 226.308 82.416,228.000 82.601,228.000 84.953 C 228.000 104.305,216.471 115.775,197.000 115.793 C 181.652 115.808,172.208 109.756,168.000 97.210 C 166.408 92.466,165.389 83.959,166.300 83.026 C 166.734 82.581,187.350 83.216,187.645 83.683 M151.206 137.600 C 153.759 143.650,159.603 157.510,164.193 168.400 C 168.783 179.290,172.732 188.335,172.969 188.501 C 173.206 188.666,175.560 188.756,178.200 188.701 L 183.000 188.600 183.200 158.000 C 183.310 141.170,183.546 127.175,183.724 126.900 C 183.972 126.517,187.121 126.400,197.221 126.400 L 210.395 126.400 210.498 157.500 L 210.600 188.600 215.441 188.712 C 221.055 188.842,220.477 189.217,222.697 184.000 C 227.874 171.836,246.834 127.883,247.199 127.202 C 247.877 125.936,276.681 126.131,276.461 127.400 C 276.385 127.840,273.659 134.140,270.404 141.400 C 267.148 148.660,260.942 162.520,256.612 172.200 C 252.282 181.880,247.656 192.196,246.332 195.126 C 243.459 201.484,243.218 200.026,248.922 210.800 C 271.321 253.113,282.841 275.317,282.650 275.814 C 282.458 276.314,280.235 276.400,267.440 276.400 L 252.454 276.400 251.694 275.300 C 251.275 274.695,248.137 268.710,244.719 262.000 C 235.336 243.576,225.909 225.171,223.106 219.800 L 220.600 215.000 215.832 214.887 C 212.286 214.802,210.980 214.905,210.738 215.287 C 210.559 215.569,210.409 229.326,210.406 245.857 C 210.401 272.893,210.336 275.939,209.767 276.157 C 208.359 276.697,184.117 276.424,183.652 275.862 C 183.334 275.479,183.176 266.635,183.103 245.162 L 183.000 215.000 178.173 214.888 C 173.955 214.791,173.268 214.866,172.733 215.488 C 172.397 215.880,165.413 229.520,157.214 245.800 C 149.015 262.080,142.126 275.625,141.904 275.900 C 141.440 276.477,112.188 276.634,111.291 276.065 C 110.915 275.826,115.835 266.022,129.991 238.801 C 140.696 218.214,149.200 201.408,149.200 200.838 C 149.200 200.276,147.015 194.862,144.344 188.808 C 136.234 170.422,132.408 161.744,124.627 144.083 C 120.527 134.779,117.281 126.992,117.413 126.779 C 117.563 126.536,123.072 126.429,132.109 126.495 L 146.565 126.600 151.206 137.600 " stroke="none" fill="#fbfbfb" fill-rule="evenodd"></path><path id="path2" d="M94.800 28.000 C 94.800 28.220,94.395 28.421,93.900 28.446 C 93.175 28.484,93.142 28.530,93.732 28.682 C 94.695 28.931,96.400 28.490,96.400 27.992 C 96.400 27.777,96.040 27.600,95.600 27.600 C 95.160 27.600,94.800 27.780,94.800 28.000 M297.200 27.992 C 297.200 28.490,298.905 28.931,299.868 28.682 C 300.458 28.530,300.425 28.484,299.700 28.446 C 299.205 28.421,298.800 28.220,298.800 28.000 C 298.800 27.780,298.440 27.600,298.000 27.600 C 297.560 27.600,297.200 27.777,297.200 27.992 M91.044 29.029 C 90.876 29.468,91.004 29.619,91.468 29.529 C 91.834 29.458,92.209 29.175,92.300 28.900 C 92.545 28.165,91.328 28.290,91.044 29.029 M301.300 28.900 C 301.391 29.175,301.766 29.458,302.132 29.529 C 302.596 29.619,302.724 29.468,302.556 29.029 C 302.272 28.290,301.055 28.165,301.300 28.900 M89.038 29.845 C 88.881 30.255,88.499 30.415,87.995 30.283 C 87.558 30.168,87.200 30.238,87.200 30.437 C 87.200 30.637,86.840 30.800,86.400 30.800 C 85.960 30.800,85.600 30.980,85.600 31.200 C 85.600 31.420,85.240 31.600,84.800 31.600 C 84.332 31.600,84.000 31.867,84.000 32.243 C 84.000 32.719,83.755 32.825,83.061 32.651 C 82.328 32.467,82.023 32.631,81.674 33.397 C 81.428 33.936,80.740 34.500,80.144 34.650 C 78.743 35.002,75.002 38.743,74.650 40.144 C 74.500 40.740,73.936 41.428,73.397 41.674 C 72.631 42.023,72.467 42.328,72.651 43.061 C 72.825 43.755,72.719 44.000,72.243 44.000 C 71.867 44.000,71.600 44.332,71.600 44.800 C 71.600 45.240,71.420 45.600,71.200 45.600 C 70.980 45.600,70.800 45.960,70.800 46.400 C 70.800 46.840,70.637 47.200,70.437 47.200 C 70.238 47.200,70.168 47.558,70.283 47.995 C 70.415 48.499,70.255 48.881,69.845 49.038 C 69.490 49.174,69.200 49.558,69.200 49.892 C 69.200 51.027,70.365 49.612,70.879 47.853 C 71.144 46.944,71.460 46.110,71.581 46.000 C 71.891 45.717,72.719 44.374,73.303 43.205 C 74.434 40.943,80.943 34.434,83.205 33.303 C 84.374 32.719,85.717 31.891,86.000 31.581 C 86.110 31.460,86.944 31.144,87.853 30.879 C 89.612 30.365,91.027 29.200,89.892 29.200 C 89.558 29.200,89.174 29.490,89.038 29.845 M303.598 29.798 C 303.872 30.127,304.839 30.613,305.747 30.879 C 306.656 31.144,307.490 31.460,307.600 31.581 C 307.883 31.891,309.226 32.719,310.395 33.303 C 312.657 34.434,319.166 40.943,320.297 43.205 C 320.881 44.374,321.709 45.717,322.019 46.000 C 322.140 46.110,322.456 46.944,322.721 47.853 C 323.235 49.612,324.400 51.027,324.400 49.892 C 324.400 49.558,324.110 49.174,323.755 49.038 C 323.345 48.881,323.185 48.499,323.317 47.995 C 323.432 47.558,323.362 47.200,323.163 47.200 C 322.963 47.200,322.800 46.840,322.800 46.400 C 322.800 45.960,322.620 45.600,322.400 45.600 C 322.180 45.600,322.000 45.240,322.000 44.800 C 322.000 44.332,321.733 44.000,321.357 44.000 C 320.881 44.000,320.775 43.755,320.949 43.061 C 321.133 42.328,320.969 42.023,320.203 41.674 C 319.664 41.428,319.100 40.740,318.950 40.144 C 318.598 38.743,314.857 35.002,313.456 34.650 C 312.860 34.500,312.172 33.936,311.926 33.397 C 311.577 32.631,311.272 32.467,310.539 32.651 C 309.845 32.825,309.600 32.719,309.600 32.243 C 309.600 31.867,309.268 31.600,308.800 31.600 C 308.360 31.600,308.000 31.420,308.000 31.200 C 308.000 30.980,307.640 30.800,307.200 30.800 C 306.760 30.800,306.400 30.637,306.400 30.437 C 306.400 30.238,306.042 30.168,305.605 30.283 C 305.101 30.415,304.719 30.255,304.562 29.845 C 304.426 29.490,304.042 29.200,303.708 29.200 C 303.216 29.200,303.195 29.312,303.598 29.798 M68.900 51.088 C 68.299 51.303,68.226 52.400,68.813 52.400 C 69.225 52.400,69.831 51.279,69.549 51.038 C 69.467 50.967,69.175 50.990,68.900 51.088 M324.071 51.468 C 324.142 51.834,324.425 52.209,324.700 52.300 C 325.435 52.545,325.310 51.328,324.571 51.044 C 324.132 50.876,323.981 51.004,324.071 51.468 M68.446 53.900 C 68.421 54.395,68.220 54.800,68.000 54.800 C 67.780 54.800,67.600 55.160,67.600 55.600 C 67.600 56.040,67.777 56.400,67.992 56.400 C 68.490 56.400,68.931 54.695,68.682 53.732 C 68.530 53.142,68.484 53.175,68.446 53.900 M324.854 54.067 C 324.790 55.340,325.148 56.400,325.643 56.400 C 325.839 56.400,326.000 56.040,326.000 55.600 C 326.000 55.160,325.833 54.800,325.628 54.800 C 325.423 54.800,325.178 54.395,325.082 53.900 C 324.929 53.105,324.903 53.125,324.854 54.067 M166.168 83.340 C 166.054 83.637,166.024 85.122,166.102 86.640 L 166.243 89.400 166.322 86.312 L 166.400 83.223 171.700 83.099 L 177.000 82.975 171.687 82.887 C 167.536 82.819,166.330 82.918,166.168 83.340 M218.100 83.097 C 219.805 83.172,222.595 83.172,224.300 83.097 C 226.005 83.022,224.610 82.961,221.200 82.961 C 217.790 82.961,216.395 83.022,218.100 83.097 M186.099 83.486 C 187.190 83.652,187.344 83.926,187.734 86.400 C 187.844 87.099,187.907 86.958,187.946 85.933 C 188.028 83.720,187.694 83.191,186.257 83.260 C 185.049 83.318,185.043 83.326,186.099 83.486 M206.221 83.700 C 205.945 84.598,205.592 89.341,205.818 89.115 C 206.063 88.870,206.727 83.200,206.511 83.200 C 206.436 83.200,206.306 83.425,206.221 83.700 M227.444 87.145 C 227.286 89.425,227.239 91.372,227.339 91.473 C 227.591 91.724,228.132 84.197,227.910 83.535 C 227.811 83.241,227.602 84.865,227.444 87.145 M188.006 88.433 C 188.009 88.965,188.189 89.670,188.406 90.000 C 188.682 90.422,188.723 90.185,188.542 89.200 C 188.225 87.475,187.998 87.149,188.006 88.433 M204.686 91.307 C 201.970 97.751,193.346 98.508,189.955 92.600 C 189.324 91.500,188.806 90.764,188.804 90.965 C 188.758 95.431,197.148 98.511,201.622 95.671 C 203.330 94.586,205.847 90.932,205.530 89.997 C 205.459 89.787,205.079 90.376,204.686 91.307 M166.672 91.800 C 166.799 92.900,166.969 93.875,167.051 93.967 C 167.332 94.282,167.120 91.799,166.780 90.800 C 166.551 90.126,166.516 90.451,166.672 91.800 M226.622 93.422 C 226.472 94.225,226.428 94.962,226.526 95.060 C 226.624 95.157,226.827 94.581,226.978 93.778 C 227.128 92.975,227.172 92.238,227.074 92.140 C 226.976 92.043,226.773 92.619,226.622 93.422 M167.444 95.400 C 167.773 96.871,168.002 97.190,167.994 96.167 C 167.991 95.745,167.805 95.130,167.582 94.800 C 167.285 94.362,167.248 94.524,167.444 95.400 M224.306 100.306 C 223.713 101.546,223.293 102.626,223.372 102.706 C 223.452 102.785,224.009 101.843,224.612 100.612 C 225.214 99.381,225.634 98.301,225.545 98.212 C 225.456 98.123,224.899 99.065,224.306 100.306 M168.805 99.344 C 168.786 100.601,171.799 105.032,174.585 107.845 C 177.249 110.534,181.200 113.384,181.200 112.616 C 181.200 112.506,180.435 112.027,179.500 111.551 C 176.897 110.225,172.366 105.434,170.469 102.000 C 169.557 100.350,168.808 99.155,168.805 99.344 M218.824 107.917 C 216.967 109.812,215.977 110.980,216.624 110.513 C 218.179 109.390,222.989 104.283,222.349 104.435 C 222.267 104.455,220.681 106.022,218.824 107.917 M213.900 111.829 C 212.405 112.640,212.496 112.978,214.000 112.200 C 214.660 111.859,215.200 111.494,215.200 111.390 C 215.200 111.132,215.157 111.147,213.900 111.829 M210.200 113.629 C 209.320 114.052,209.050 114.286,209.600 114.149 C 210.733 113.867,212.812 112.825,212.200 112.846 C 211.980 112.853,211.080 113.206,210.200 113.629 M186.200 114.800 C 186.640 114.989,187.360 115.138,187.800 115.132 C 188.443 115.123,188.404 115.057,187.600 114.800 C 186.232 114.362,185.181 114.362,186.200 114.800 M206.400 114.800 C 205.596 115.057,205.557 115.123,206.200 115.132 C 206.640 115.138,207.360 114.989,207.800 114.800 C 208.819 114.362,207.768 114.362,206.400 114.800 M190.200 115.610 C 191.790 115.952,195.485 116.133,195.167 115.854 C 195.075 115.774,193.560 115.608,191.800 115.487 C 189.502 115.329,189.051 115.363,190.200 115.610 M200.400 115.600 C 198.201 115.870,198.201 115.870,200.000 115.905 C 200.990 115.925,202.610 115.797,203.600 115.620 C 205.946 115.203,203.753 115.189,200.400 115.600 M117.467 126.667 C 117.320 126.813,117.200 127.119,117.200 127.347 C 117.200 127.594,117.393 127.567,117.680 127.280 C 118.386 126.574,145.731 126.593,146.315 127.300 C 146.543 127.575,147.042 128.610,147.425 129.600 C 147.807 130.590,148.286 131.580,148.489 131.800 C 148.864 132.207,147.493 128.495,146.769 127.142 C 146.364 126.385,118.205 125.929,117.467 126.667 M183.724 126.900 C 183.546 127.175,183.310 141.170,183.200 158.000 L 183.000 188.600 178.600 188.716 C 173.062 188.863,172.693 188.765,172.049 186.984 C 171.761 186.190,171.451 185.616,171.358 185.709 C 171.022 186.044,172.386 188.709,173.018 188.951 C 173.852 189.272,182.136 189.276,182.967 188.957 C 183.536 188.739,183.601 185.658,183.606 158.257 C 183.609 141.506,183.758 127.570,183.936 127.289 C 184.191 126.888,187.066 126.802,197.331 126.889 C 204.519 126.950,210.400 126.865,210.400 126.700 C 210.400 126.142,184.086 126.340,183.724 126.900 M247.462 126.700 C 247.359 126.865,253.739 126.949,261.638 126.886 L 276.000 126.771 276.028 127.686 C 276.055 128.547,276.075 128.554,276.378 127.800 C 276.932 126.424,276.685 126.400,262.000 126.400 C 254.106 126.400,247.564 126.535,247.462 126.700 M246.800 127.684 C 246.800 127.804,246.528 128.554,246.195 129.351 C 245.862 130.148,245.679 130.800,245.789 130.800 C 246.106 130.800,247.233 127.900,247.005 127.672 C 246.892 127.559,246.800 127.565,246.800 127.684 M118.207 129.479 C 118.807 130.914,119.200 131.562,119.200 131.116 C 119.200 130.684,117.985 128.000,117.789 128.000 C 117.679 128.000,117.867 128.666,118.207 129.479 M275.000 130.261 C 274.664 131.065,274.482 131.815,274.595 131.928 C 274.708 132.041,274.800 132.035,274.800 131.916 C 274.800 131.796,275.072 131.046,275.405 130.249 C 275.738 129.452,275.921 128.800,275.811 128.800 C 275.701 128.800,275.336 129.458,275.000 130.261 M119.234 131.800 C 119.234 132.020,119.578 132.830,120.000 133.600 C 120.422 134.370,120.766 134.820,120.766 134.600 C 120.766 134.380,120.422 133.570,120.000 132.800 C 119.578 132.030,119.234 131.580,119.234 131.800 M273.400 133.861 C 273.064 134.665,272.882 135.415,272.995 135.528 C 273.108 135.641,273.200 135.635,273.200 135.516 C 273.200 135.396,273.472 134.646,273.805 133.849 C 274.138 133.052,274.321 132.400,274.211 132.400 C 274.101 132.400,273.736 133.058,273.400 133.861 M244.400 133.284 C 244.400 133.404,244.128 134.154,243.795 134.951 C 243.462 135.748,243.279 136.400,243.389 136.400 C 243.706 136.400,244.833 133.500,244.605 133.272 C 244.492 133.159,244.400 133.165,244.400 133.284 M149.726 134.800 C 150.202 136.333,151.357 139.040,151.689 139.400 C 152.116 139.864,150.542 135.732,149.942 134.815 C 149.601 134.294,149.568 134.292,149.726 134.800 M120.834 135.400 C 120.834 135.620,121.178 136.430,121.600 137.200 C 122.022 137.970,122.366 138.420,122.366 138.200 C 122.366 137.980,122.022 137.170,121.600 136.400 C 121.178 135.630,120.834 135.180,120.834 135.400 M271.429 138.248 C 270.863 139.485,270.407 140.610,270.416 140.748 C 270.437 141.082,271.558 138.998,272.256 137.328 C 273.178 135.120,272.532 135.840,271.429 138.248 M242.000 138.884 C 242.000 139.004,241.728 139.754,241.395 140.551 C 241.062 141.348,240.879 142.000,240.989 142.000 C 241.306 142.000,242.433 139.100,242.205 138.872 C 242.092 138.759,242.000 138.765,242.000 138.884 M123.807 142.279 C 124.407 143.714,124.800 144.362,124.800 143.916 C 124.800 143.484,123.585 140.800,123.389 140.800 C 123.279 140.800,123.467 141.466,123.807 142.279 M269.472 142.619 C 268.532 144.589,268.664 144.924,269.647 143.062 C 270.093 142.216,270.387 141.454,270.301 141.367 C 270.214 141.281,269.841 141.844,269.472 142.619 M152.926 142.400 C 153.402 143.933,154.557 146.640,154.889 147.000 C 155.316 147.464,153.742 143.332,153.142 142.415 C 152.801 141.894,152.768 141.892,152.926 142.400 M240.292 142.883 C 238.777 146.665,238.401 147.736,238.704 147.400 C 239.192 146.860,240.848 142.714,240.653 142.520 C 240.568 142.435,240.406 142.598,240.292 142.883 M125.407 145.879 C 126.007 147.314,126.400 147.962,126.400 147.516 C 126.400 147.084,125.185 144.400,124.989 144.400 C 124.879 144.400,125.067 145.066,125.407 145.879 M267.800 146.261 C 267.464 147.065,267.282 147.815,267.395 147.928 C 267.508 148.041,267.600 148.035,267.600 147.916 C 267.600 147.796,267.872 147.046,268.205 146.249 C 268.538 145.452,268.721 144.800,268.611 144.800 C 268.501 144.800,268.136 145.458,267.800 146.261 M127.007 149.479 C 127.607 150.914,128.000 151.562,128.000 151.116 C 128.000 150.684,126.785 148.000,126.589 148.000 C 126.479 148.000,126.667 148.666,127.007 149.479 M237.067 150.467 C 236.481 151.824,236.066 152.999,236.144 153.078 C 236.223 153.156,236.768 152.111,237.356 150.756 C 237.943 149.400,238.359 148.225,238.278 148.145 C 238.198 148.064,237.652 149.109,237.067 150.467 M266.200 149.861 C 265.864 150.665,265.682 151.415,265.795 151.528 C 265.908 151.641,266.000 151.635,266.000 151.516 C 266.000 151.396,266.272 150.646,266.605 149.849 C 266.938 149.052,267.121 148.400,267.011 148.400 C 266.901 148.400,266.536 149.058,266.200 149.861 M156.000 149.684 C 156.000 150.116,157.215 152.800,157.411 152.800 C 157.521 152.800,157.333 152.134,156.993 151.321 C 156.393 149.886,156.000 149.238,156.000 149.684 M128.607 153.079 C 129.207 154.514,129.600 155.162,129.600 154.716 C 129.600 154.284,128.385 151.600,128.189 151.600 C 128.079 151.600,128.267 152.266,128.607 153.079 M264.600 153.461 C 264.264 154.265,264.082 155.015,264.195 155.128 C 264.308 155.241,264.400 155.235,264.400 155.116 C 264.400 154.996,264.672 154.246,265.005 153.449 C 265.338 152.652,265.521 152.000,265.411 152.000 C 265.301 152.000,264.936 152.658,264.600 153.461 M234.667 156.067 C 234.081 157.424,233.666 158.599,233.744 158.678 C 233.823 158.756,234.368 157.711,234.956 156.356 C 235.543 155.000,235.959 153.825,235.878 153.745 C 235.798 153.664,235.252 154.709,234.667 156.067 M130.207 156.679 C 130.807 158.114,131.200 158.762,131.200 158.316 C 131.200 157.884,129.985 155.200,129.789 155.200 C 129.679 155.200,129.867 155.866,130.207 156.679 M158.526 155.600 C 159.002 157.133,160.157 159.840,160.489 160.200 C 160.916 160.664,159.342 156.532,158.742 155.615 C 158.401 155.094,158.368 155.092,158.526 155.600 M263.000 157.061 C 262.664 157.865,262.482 158.615,262.595 158.728 C 262.708 158.841,262.800 158.835,262.800 158.716 C 262.800 158.596,263.072 157.846,263.405 157.049 C 263.738 156.252,263.921 155.600,263.811 155.600 C 263.701 155.600,263.336 156.258,263.000 157.061 M131.344 159.200 C 131.647 160.323,134.115 165.619,134.265 165.468 C 134.347 165.386,133.687 163.807,132.798 161.959 C 131.909 160.112,131.255 158.870,131.344 159.200 M233.200 159.284 C 233.200 159.404,232.928 160.154,232.595 160.951 C 232.262 161.748,232.079 162.400,232.189 162.400 C 232.506 162.400,233.633 159.500,233.405 159.272 C 233.292 159.159,233.200 159.165,233.200 159.284 M261.029 161.448 C 260.463 162.685,260.007 163.810,260.016 163.948 C 260.037 164.282,261.158 162.198,261.856 160.528 C 262.778 158.320,262.132 159.040,261.029 161.448 M161.726 163.200 C 162.202 164.733,163.357 167.440,163.689 167.800 C 164.116 168.264,162.542 164.132,161.942 163.215 C 161.601 162.694,161.568 162.692,161.726 163.200 M259.072 165.819 C 258.132 167.789,258.264 168.124,259.247 166.262 C 259.693 165.416,259.987 164.654,259.901 164.567 C 259.814 164.481,259.441 165.044,259.072 165.819 M230.800 164.884 C 230.800 165.004,230.528 165.754,230.195 166.551 C 229.862 167.348,229.679 168.000,229.789 168.000 C 230.106 168.000,231.233 165.100,231.005 164.872 C 230.892 164.759,230.800 164.765,230.800 164.884 M135.807 169.479 C 136.407 170.914,136.800 171.562,136.800 171.116 C 136.800 170.684,135.585 168.000,135.389 168.000 C 135.279 168.000,135.467 168.666,135.807 169.479 M257.423 169.406 C 256.560 171.472,256.674 171.706,257.647 169.862 C 258.093 169.016,258.365 168.232,258.252 168.119 C 258.139 168.006,257.766 168.585,257.423 169.406 M164.926 170.800 C 165.402 172.333,166.557 175.040,166.889 175.400 C 167.316 175.864,165.742 171.732,165.142 170.815 C 164.801 170.294,164.768 170.292,164.926 170.800 M228.400 170.484 C 228.400 170.604,228.128 171.354,227.795 172.151 C 227.462 172.948,227.279 173.600,227.389 173.600 C 227.706 173.600,228.833 170.700,228.605 170.472 C 228.492 170.359,228.400 170.365,228.400 170.484 M137.407 173.079 C 138.007 174.514,138.400 175.162,138.400 174.716 C 138.400 174.284,137.185 171.600,136.989 171.600 C 136.879 171.600,137.067 172.266,137.407 173.079 M255.872 173.019 C 254.932 174.989,255.064 175.324,256.047 173.462 C 256.493 172.616,256.787 171.854,256.701 171.767 C 256.614 171.681,256.241 172.244,255.872 173.019 M139.007 176.679 C 139.607 178.114,140.000 178.762,140.000 178.316 C 140.000 177.884,138.785 175.200,138.589 175.200 C 138.479 175.200,138.667 175.866,139.007 176.679 M254.200 176.661 C 253.864 177.465,253.682 178.215,253.795 178.328 C 253.908 178.441,254.000 178.435,254.000 178.316 C 254.000 178.196,254.272 177.446,254.605 176.649 C 254.938 175.852,255.121 175.200,255.011 175.200 C 254.901 175.200,254.536 175.858,254.200 176.661 M226.000 176.084 C 226.000 176.204,225.728 176.954,225.395 177.751 C 225.062 178.548,224.879 179.200,224.989 179.200 C 225.306 179.200,226.433 176.300,226.205 176.072 C 226.092 175.959,226.000 175.965,226.000 176.084 M168.126 178.400 C 168.602 179.933,169.757 182.640,170.089 183.000 C 170.516 183.464,168.942 179.332,168.342 178.415 C 168.001 177.894,167.968 177.892,168.126 178.400 M140.017 179.100 C 140.039 179.501,141.562 182.270,141.583 181.949 C 141.611 181.535,140.405 178.800,140.195 178.800 C 140.088 178.800,140.008 178.935,140.017 179.100 M252.600 180.261 C 252.264 181.065,252.082 181.815,252.195 181.928 C 252.308 182.041,252.400 182.035,252.400 181.916 C 252.400 181.796,252.672 181.046,253.005 180.249 C 253.338 179.452,253.521 178.800,253.411 178.800 C 253.301 178.800,252.936 179.458,252.600 180.261 M224.292 180.083 C 222.777 183.865,222.401 184.936,222.704 184.600 C 223.192 184.060,224.848 179.914,224.653 179.720 C 224.568 179.635,224.406 179.798,224.292 180.083 M141.634 182.600 C 141.634 182.820,141.978 183.630,142.400 184.400 C 142.822 185.170,143.166 185.620,143.166 185.400 C 143.166 185.180,142.822 184.370,142.400 183.600 C 141.978 182.830,141.634 182.380,141.634 182.600 M251.000 183.861 C 250.664 184.665,250.482 185.415,250.595 185.528 C 250.708 185.641,250.800 185.635,250.800 185.516 C 250.800 185.396,251.072 184.646,251.405 183.849 C 251.738 183.052,251.921 182.400,251.811 182.400 C 251.701 182.400,251.336 183.058,251.000 183.861 M221.326 186.998 C 220.875 187.979,220.664 188.684,220.859 188.564 C 221.259 188.316,222.481 185.548,222.279 185.345 C 222.206 185.273,221.778 186.017,221.326 186.998 M143.265 186.200 C 143.260 186.733,145.536 191.514,145.550 191.000 C 145.556 190.780,145.045 189.520,144.415 188.200 C 143.784 186.880,143.267 185.980,143.265 186.200 M247.867 190.867 C 247.059 192.662,246.462 194.195,246.539 194.272 C 246.616 194.350,247.341 192.945,248.150 191.150 C 248.959 189.355,249.556 187.823,249.478 187.744 C 249.399 187.666,248.674 189.071,247.867 190.867 M210.752 188.914 C 210.926 189.086,213.122 189.175,215.634 189.112 L 220.200 188.996 215.318 188.798 C 212.634 188.689,210.579 188.741,210.752 188.914 M146.207 193.079 C 146.807 194.514,147.200 195.162,147.200 194.716 C 147.200 194.284,145.985 191.600,145.789 191.600 C 145.679 191.600,145.867 192.266,146.207 193.079 M245.472 196.219 C 244.532 198.189,244.664 198.524,245.647 196.662 C 246.093 195.816,246.387 195.054,246.301 194.967 C 246.214 194.881,245.841 195.444,245.472 196.219 M147.807 196.679 C 148.407 198.114,148.800 198.762,148.800 198.316 C 148.800 197.884,147.585 195.200,147.389 195.200 C 147.279 195.200,147.467 195.866,147.807 196.679 M149.000 200.800 C 149.000 201.858,149.135 202.640,149.300 202.538 C 149.465 202.436,149.600 201.654,149.600 200.800 C 149.600 199.946,149.465 199.164,149.300 199.062 C 149.135 198.960,149.000 199.742,149.000 200.800 M243.630 200.774 C 243.598 201.387,246.225 206.731,246.888 207.400 C 247.106 207.620,246.682 206.630,245.946 205.200 C 245.210 203.770,244.395 202.060,244.134 201.400 C 243.874 200.740,243.647 200.458,243.630 200.774 M146.600 206.800 C 145.606 208.780,144.882 210.400,144.992 210.400 C 145.102 210.400,146.006 208.780,147.000 206.800 C 147.994 204.820,148.718 203.200,148.608 203.200 C 148.498 203.200,147.594 204.820,146.600 206.800 M249.400 212.400 C 250.176 213.940,250.900 215.200,251.010 215.200 C 251.120 215.200,250.576 213.940,249.800 212.400 C 249.024 210.860,248.300 209.600,248.190 209.600 C 248.080 209.600,248.624 210.860,249.400 212.400 M141.799 216.083 C 140.753 218.127,140.076 219.620,140.293 219.400 C 140.877 218.809,144.039 212.705,143.856 212.522 C 143.769 212.436,142.844 214.038,141.799 216.083 M172.562 215.300 L 171.800 216.200 172.646 215.487 C 173.373 214.874,174.162 214.790,178.246 214.887 L 183.000 215.000 183.103 245.162 C 183.176 266.635,183.334 275.479,183.652 275.862 C 184.011 276.296,186.587 276.382,196.949 276.308 L 209.800 276.217 196.800 276.008 L 183.800 275.800 183.697 245.422 C 183.617 221.729,183.485 214.975,183.097 214.728 C 181.800 213.904,173.356 214.363,172.562 215.300 M210.667 214.667 C 210.520 214.813,210.403 215.128,210.406 215.367 C 210.410 215.615,210.552 215.580,210.738 215.287 C 210.980 214.905,212.286 214.802,215.832 214.887 L 220.600 215.000 222.800 219.269 C 224.010 221.617,225.156 223.687,225.346 223.869 C 225.907 224.406,221.572 215.867,220.894 215.100 C 220.262 214.384,211.328 214.005,210.667 214.667 M251.206 215.651 C 251.197 216.019,254.443 222.129,254.897 222.600 C 255.109 222.820,254.552 221.560,253.658 219.800 C 251.995 216.523,251.217 215.207,251.206 215.651 M163.442 232.700 C 160.274 239.025,156.222 247.064,154.439 250.564 C 152.655 254.065,151.267 257.000,151.354 257.088 C 151.442 257.175,155.589 249.136,160.571 239.223 C 165.552 229.311,169.532 221.200,169.415 221.200 C 169.298 221.200,166.610 226.375,163.442 232.700 M136.200 226.800 C 135.206 228.780,134.482 230.400,134.592 230.400 C 134.702 230.400,135.606 228.780,136.600 226.800 C 137.594 224.820,138.318 223.200,138.208 223.200 C 138.098 223.200,137.194 224.820,136.200 226.800 M257.400 227.600 C 258.176 229.140,258.900 230.400,259.010 230.400 C 259.120 230.400,258.576 229.140,257.800 227.600 C 257.024 226.060,256.300 224.800,256.190 224.800 C 256.080 224.800,256.624 226.060,257.400 227.600 M231.802 236.714 C 233.508 240.077,234.970 242.763,235.051 242.682 C 235.231 242.503,229.653 231.559,229.097 231.000 C 228.878 230.780,230.095 233.352,231.802 236.714 M259.273 231.000 C 259.583 231.923,262.826 238.000,263.009 238.000 C 263.234 238.000,260.279 232.128,259.587 231.200 C 259.340 230.870,259.199 230.780,259.273 231.000 M131.399 236.083 C 130.353 238.127,129.676 239.620,129.893 239.400 C 130.477 238.809,133.639 232.705,133.456 232.522 C 133.369 232.436,132.444 234.038,131.399 236.083 M263.272 238.600 C 263.567 239.484,266.025 244.000,266.212 244.000 C 266.436 244.000,264.281 239.733,263.586 238.800 C 263.340 238.470,263.199 238.380,263.272 238.600 M125.800 246.800 C 124.806 248.780,124.082 250.400,124.192 250.400 C 124.302 250.400,125.206 248.780,126.200 246.800 C 127.194 244.820,127.918 243.200,127.808 243.200 C 127.698 243.200,126.794 244.820,125.800 246.800 M267.272 246.200 C 267.567 247.084,270.025 251.600,270.212 251.600 C 270.436 251.600,268.281 247.333,267.586 246.400 C 267.340 246.070,267.199 245.980,267.272 246.200 M240.228 253.225 C 241.689 256.098,242.945 258.389,243.019 258.314 C 243.193 258.141,238.032 248.000,237.769 248.000 C 237.660 248.000,238.766 250.351,240.228 253.225 M120.999 256.083 C 119.953 258.127,119.276 259.620,119.493 259.400 C 120.077 258.809,123.239 252.705,123.056 252.522 C 122.969 252.436,122.044 254.038,120.999 256.083 M271.272 253.800 C 271.567 254.684,274.025 259.200,274.212 259.200 C 274.436 259.200,272.281 254.933,271.586 254.000 C 271.340 253.670,271.199 253.580,271.272 253.800 M275.272 261.400 C 275.567 262.284,278.025 266.800,278.212 266.800 C 278.436 266.800,276.281 262.533,275.586 261.600 C 275.340 261.270,275.199 261.180,275.272 261.400 M115.400 266.800 C 114.406 268.780,113.682 270.400,113.792 270.400 C 113.902 270.400,114.806 268.780,115.800 266.800 C 116.794 264.820,117.518 263.200,117.408 263.200 C 117.298 263.200,116.394 264.820,115.400 266.800 M248.593 269.527 C 250.291 272.897,251.747 275.587,251.829 275.504 C 252.010 275.324,246.460 264.367,245.901 263.800 C 245.684 263.580,246.895 266.157,248.593 269.527 M280.600 271.600 C 281.376 273.140,282.100 274.400,282.210 274.400 C 282.320 274.400,281.776 273.140,281.000 271.600 C 280.224 270.060,279.500 268.800,279.390 268.800 C 279.280 268.800,279.824 270.060,280.600 271.600 M111.631 274.031 C 111.129 274.923,110.795 275.729,110.888 275.821 C 110.981 275.914,111.454 275.247,111.938 274.338 C 113.087 272.187,112.818 271.918,111.631 274.031 M282.400 275.329 C 282.400 275.931,281.039 276.000,267.300 276.100 L 252.200 276.210 267.313 276.305 C 282.678 276.402,284.014 276.281,282.649 274.916 C 282.512 274.779,282.400 274.965,282.400 275.329 M141.765 275.595 C 141.523 275.837,135.563 276.033,126.385 276.100 L 111.400 276.210 126.451 276.305 C 139.421 276.387,141.571 276.317,142.000 275.800 C 142.555 275.131,142.381 274.979,141.765 275.595 M67.600 343.600 C 67.600 344.040,67.780 344.400,68.000 344.400 C 68.220 344.400,68.421 344.805,68.446 345.300 C 68.484 346.025,68.530 346.058,68.682 345.468 C 68.931 344.505,68.490 342.800,67.992 342.800 C 67.777 342.800,67.600 343.160,67.600 343.600 M324.972 343.768 C 324.839 344.301,324.814 345.066,324.918 345.468 C 325.070 346.058,325.116 346.025,325.154 345.300 C 325.179 344.805,325.380 344.400,325.600 344.400 C 325.820 344.400,326.000 344.040,326.000 343.600 C 326.000 342.480,325.265 342.600,324.972 343.768 M68.400 347.324 C 68.400 347.649,68.683 348.023,69.029 348.156 C 69.468 348.324,69.619 348.196,69.529 347.732 C 69.365 346.885,68.400 346.537,68.400 347.324 M324.267 347.067 C 323.753 347.581,323.999 348.375,324.600 348.145 C 324.930 348.018,325.200 347.664,325.200 347.357 C 325.200 346.769,324.715 346.618,324.267 347.067 M69.200 349.308 C 69.200 349.642,69.490 350.026,69.845 350.162 C 70.255 350.319,70.415 350.701,70.283 351.205 C 70.168 351.642,70.238 352.000,70.437 352.000 C 70.637 352.000,70.800 352.360,70.800 352.800 C 70.800 353.240,70.980 353.600,71.200 353.600 C 71.420 353.600,71.600 353.960,71.600 354.400 C 71.600 354.868,71.867 355.200,72.243 355.200 C 72.719 355.200,72.825 355.445,72.651 356.139 C 72.467 356.872,72.631 357.177,73.397 357.526 C 73.936 357.772,74.500 358.460,74.650 359.056 C 75.002 360.457,78.743 364.198,80.144 364.550 C 80.740 364.700,81.428 365.264,81.674 365.803 C 82.023 366.569,82.328 366.733,83.061 366.549 C 83.755 366.375,84.000 366.481,84.000 366.957 C 84.000 367.333,84.332 367.600,84.800 367.600 C 85.240 367.600,85.600 367.780,85.600 368.000 C 85.600 368.220,85.960 368.400,86.400 368.400 C 86.840 368.400,87.200 368.563,87.200 368.763 C 87.200 368.962,87.558 369.032,87.995 368.917 C 88.499 368.785,88.881 368.945,89.038 369.355 C 89.174 369.710,89.558 370.000,89.892 370.000 C 91.027 370.000,89.612 368.835,87.853 368.321 C 86.944 368.056,86.110 367.740,86.000 367.619 C 85.717 367.309,84.374 366.481,83.205 365.897 C 81.845 365.217,81.328 364.773,77.877 361.323 C 74.427 357.872,73.983 357.355,73.303 355.995 C 72.719 354.826,71.891 353.483,71.581 353.200 C 71.460 353.090,71.144 352.256,70.879 351.347 C 70.365 349.588,69.200 348.173,69.200 349.308 M323.496 349.608 C 323.143 350.154,322.724 351.140,322.566 351.800 C 322.407 352.460,322.170 353.090,322.038 353.200 C 321.721 353.466,320.911 354.766,320.297 355.995 C 319.166 358.257,312.657 364.766,310.395 365.897 C 309.226 366.481,307.883 367.309,307.600 367.619 C 307.490 367.740,306.656 368.056,305.747 368.321 C 303.988 368.835,302.573 370.000,303.708 370.000 C 304.042 370.000,304.426 369.710,304.562 369.355 C 304.719 368.945,305.101 368.785,305.605 368.917 C 306.042 369.032,306.400 368.962,306.400 368.763 C 306.400 368.563,306.760 368.400,307.200 368.400 C 307.640 368.400,308.000 368.220,308.000 368.000 C 308.000 367.780,308.360 367.600,308.800 367.600 C 309.268 367.600,309.600 367.333,309.600 366.957 C 309.600 366.481,309.845 366.375,310.539 366.549 C 311.272 366.733,311.577 366.569,311.926 365.803 C 312.172 365.264,312.860 364.700,313.456 364.550 C 314.857 364.198,318.598 360.457,318.950 359.056 C 319.100 358.460,319.664 357.772,320.203 357.526 C 320.969 357.177,321.133 356.872,320.949 356.139 C 320.775 355.445,320.881 355.200,321.357 355.200 C 321.733 355.200,322.000 354.868,322.000 354.400 C 322.000 353.960,322.180 353.600,322.400 353.600 C 322.620 353.600,322.800 353.240,322.800 352.800 C 322.800 352.360,322.974 352.000,323.187 352.000 C 323.401 352.000,323.461 351.704,323.322 351.342 C 323.170 350.945,323.350 350.480,323.777 350.168 C 324.166 349.883,324.406 349.418,324.311 349.134 C 324.199 348.797,323.914 348.963,323.496 349.608 M91.044 370.171 C 91.328 370.910,92.545 371.035,92.300 370.300 C 92.209 370.025,91.834 369.742,91.468 369.671 C 91.004 369.581,90.876 369.732,91.044 370.171 M301.467 369.867 C 301.018 370.315,301.169 370.800,301.757 370.800 C 302.064 370.800,302.418 370.530,302.545 370.200 C 302.775 369.599,301.981 369.353,301.467 369.867 M93.900 370.682 C 94.395 370.778,94.800 371.023,94.800 371.228 C 94.800 371.433,95.160 371.600,95.600 371.600 C 96.040 371.600,96.400 371.439,96.400 371.243 C 96.400 370.748,95.340 370.390,94.067 370.454 C 93.125 370.503,93.105 370.529,93.900 370.682 M297.700 370.665 C 296.916 370.981,297.115 371.600,298.000 371.600 C 298.440 371.600,298.800 371.433,298.800 371.228 C 298.800 371.023,299.205 370.778,299.700 370.682 C 300.379 370.552,300.305 370.503,299.400 370.486 C 298.740 370.473,297.975 370.554,297.700 370.665 " stroke="none" fill="#9c9c9c" fill-rule="evenodd"></path><path id="path3" d="M181.500 83.489 C 182.215 83.578,183.385 83.578,184.100 83.489 C 184.815 83.401,184.230 83.328,182.800 83.328 C 181.370 83.328,180.785 83.401,181.500 83.489 M207.900 83.489 C 208.615 83.578,209.785 83.578,210.500 83.489 C 211.215 83.401,210.630 83.328,209.200 83.328 C 207.770 83.328,207.185 83.401,207.900 83.489 M195.900 115.882 C 196.395 115.978,197.205 115.978,197.700 115.882 C 198.195 115.787,197.790 115.709,196.800 115.709 C 195.810 115.709,195.405 115.787,195.900 115.882 M183.790 158.000 C 183.790 174.830,183.840 181.715,183.900 173.300 C 183.960 164.885,183.960 151.115,183.900 142.700 C 183.840 134.285,183.790 141.170,183.790 158.000 M183.790 245.400 C 183.790 262.120,183.840 268.902,183.900 260.470 C 183.960 252.039,183.960 238.359,183.900 230.070 C 183.839 221.782,183.790 228.680,183.790 245.400 " stroke="none" fill="#7c7c7c" fill-rule="evenodd"></path><path id="path4" d="M93.200 28.000 C 93.200 28.220,93.470 28.400,93.800 28.400 C 94.130 28.400,94.400 28.220,94.400 28.000 C 94.400 27.780,94.130 27.600,93.800 27.600 C 93.470 27.600,93.200 27.780,93.200 28.000 M299.200 28.000 C 299.200 28.220,299.470 28.400,299.800 28.400 C 300.130 28.400,300.400 28.220,300.400 28.000 C 300.400 27.780,300.130 27.600,299.800 27.600 C 299.470 27.600,299.200 27.780,299.200 28.000 M90.000 28.800 C 90.000 29.020,90.270 29.200,90.600 29.200 C 90.930 29.200,91.200 29.020,91.200 28.800 C 91.200 28.580,90.930 28.400,90.600 28.400 C 90.270 28.400,90.000 28.580,90.000 28.800 M302.400 28.800 C 302.400 29.020,302.670 29.200,303.000 29.200 C 303.330 29.200,303.600 29.020,303.600 28.800 C 303.600 28.580,303.330 28.400,303.000 28.400 C 302.670 28.400,302.400 28.580,302.400 28.800 M82.877 32.030 C 82.956 32.267,83.191 32.460,83.400 32.460 C 83.609 32.460,83.844 32.267,83.923 32.030 C 84.002 31.794,83.767 31.600,83.400 31.600 C 83.033 31.600,82.798 31.794,82.877 32.030 M309.677 32.030 C 309.755 32.267,309.991 32.460,310.200 32.460 C 310.409 32.460,310.645 32.267,310.723 32.030 C 310.802 31.794,310.567 31.600,310.200 31.600 C 309.833 31.600,309.598 31.794,309.677 32.030 M80.400 33.600 C 80.400 33.820,80.670 34.000,81.000 34.000 C 81.330 34.000,81.600 33.820,81.600 33.600 C 81.600 33.380,81.330 33.200,81.000 33.200 C 80.670 33.200,80.400 33.380,80.400 33.600 M312.000 33.600 C 312.000 33.820,312.270 34.000,312.600 34.000 C 312.930 34.000,313.200 33.820,313.200 33.600 C 313.200 33.380,312.930 33.200,312.600 33.200 C 312.270 33.200,312.000 33.380,312.000 33.600 M73.200 41.000 C 73.200 41.330,73.380 41.600,73.600 41.600 C 73.820 41.600,74.000 41.330,74.000 41.000 C 74.000 40.670,73.820 40.400,73.600 40.400 C 73.380 40.400,73.200 40.670,73.200 41.000 M319.600 41.000 C 319.600 41.330,319.780 41.600,320.000 41.600 C 320.220 41.600,320.400 41.330,320.400 41.000 C 320.400 40.670,320.220 40.400,320.000 40.400 C 319.780 40.400,319.600 40.670,319.600 41.000 M71.600 43.400 C 71.600 43.767,71.794 44.002,72.030 43.923 C 72.266 43.845,72.460 43.609,72.460 43.400 C 72.460 43.191,72.266 42.956,72.030 42.877 C 71.794 42.798,71.600 43.033,71.600 43.400 M321.078 43.056 C 320.758 43.375,321.119 44.000,321.624 44.000 C 321.831 44.000,322.000 43.730,322.000 43.400 C 322.000 42.781,321.528 42.605,321.078 43.056 M68.400 50.600 C 68.400 50.930,68.580 51.200,68.800 51.200 C 69.020 51.200,69.200 50.930,69.200 50.600 C 69.200 50.270,69.020 50.000,68.800 50.000 C 68.580 50.000,68.400 50.270,68.400 50.600 M324.400 50.600 C 324.400 50.930,324.580 51.200,324.800 51.200 C 325.020 51.200,325.200 50.930,325.200 50.600 C 325.200 50.270,325.020 50.000,324.800 50.000 C 324.580 50.000,324.400 50.270,324.400 50.600 M67.600 53.800 C 67.600 54.130,67.780 54.400,68.000 54.400 C 68.220 54.400,68.400 54.130,68.400 53.800 C 68.400 53.470,68.220 53.200,68.000 53.200 C 67.780 53.200,67.600 53.470,67.600 53.800 M325.200 53.800 C 325.200 54.130,325.380 54.400,325.600 54.400 C 325.820 54.400,326.000 54.130,326.000 53.800 C 326.000 53.470,325.820 53.200,325.600 53.200 C 325.380 53.200,325.200 53.470,325.200 53.800 M169.680 83.498 C 171.594 83.571,174.834 83.571,176.880 83.498 C 178.926 83.426,177.360 83.366,173.400 83.365 C 169.440 83.365,167.766 83.424,169.680 83.498 M219.277 83.495 L 227.155 83.617 227.317 85.211 L 227.478 86.806 227.439 85.103 L 227.400 83.400 219.400 83.387 L 211.400 83.373 219.277 83.495 M182.000 83.846 C 184.393 84.147,187.200 84.176,187.200 83.900 C 187.200 83.735,185.805 83.627,184.100 83.660 C 182.395 83.693,181.450 83.776,182.000 83.846 M206.400 83.920 C 206.400 84.096,207.075 84.175,207.900 84.097 C 210.472 83.852,210.682 83.695,208.500 83.646 C 207.345 83.621,206.400 83.744,206.400 83.920 M189.356 93.000 C 189.669 93.660,190.429 94.650,191.047 95.200 L 192.170 96.200 190.985 94.762 C 190.333 93.971,189.572 92.981,189.294 92.562 C 189.007 92.129,189.034 92.318,189.356 93.000 M196.105 97.087 C 196.714 97.179,197.614 97.177,198.105 97.082 C 198.597 96.987,198.100 96.911,197.000 96.914 C 195.900 96.917,195.497 96.995,196.105 97.087 M219.227 107.309 C 217.755 108.996,217.541 109.348,218.562 108.400 C 219.904 107.154,221.860 104.785,221.527 104.809 C 221.457 104.814,220.422 105.939,219.227 107.309 M176.165 108.900 C 177.495 110.165,178.736 111.200,178.922 111.200 C 179.109 111.200,178.663 110.718,177.931 110.128 C 177.199 109.539,175.958 108.504,175.173 107.828 C 174.389 107.153,174.835 107.635,176.165 108.900 M213.100 111.829 C 211.605 112.640,211.696 112.978,213.200 112.200 C 213.860 111.859,214.400 111.494,214.400 111.390 C 214.400 111.132,214.357 111.147,213.100 111.829 M193.507 115.490 C 194.226 115.579,195.306 115.577,195.907 115.486 C 196.508 115.395,195.920 115.322,194.600 115.324 C 193.280 115.326,192.788 115.401,193.507 115.490 M198.307 115.490 C 199.026 115.579,200.106 115.577,200.707 115.486 C 201.308 115.395,200.720 115.322,199.400 115.324 C 198.080 115.326,197.588 115.401,198.307 115.490 M118.046 127.700 C 118.082 128.393,118.135 128.436,118.278 127.890 C 118.451 127.225,119.335 127.187,132.393 127.290 C 140.055 127.351,146.241 127.265,146.138 127.100 C 146.036 126.935,139.663 126.800,131.976 126.800 L 118.000 126.800 118.046 127.700 M184.262 127.100 C 184.160 127.265,189.864 127.400,196.938 127.400 L 209.800 127.400 210.004 158.200 L 210.207 189.000 210.304 158.380 C 210.377 134.989,210.287 127.647,209.920 127.280 C 209.378 126.738,184.593 126.564,184.262 127.100 M261.942 127.100 L 275.684 127.211 275.437 128.305 C 275.230 129.220,275.261 129.281,275.628 128.676 C 276.750 126.824,276.521 126.794,261.913 126.895 L 248.200 126.989 261.942 127.100 M172.368 188.900 C 172.824 189.502,173.609 189.600,178.000 189.600 C 182.391 189.600,183.176 189.502,183.632 188.900 C 184.082 188.304,184.078 188.275,183.601 188.700 C 183.215 189.044,181.466 189.200,178.000 189.200 C 174.534 189.200,172.785 189.044,172.399 188.700 C 171.922 188.275,171.918 188.304,172.368 188.900 M215.200 189.200 L 210.200 189.438 215.000 189.513 C 217.640 189.554,220.070 189.413,220.400 189.200 C 220.730 188.987,220.820 188.846,220.600 188.887 C 220.380 188.928,217.950 189.069,215.200 189.200 M243.372 200.171 C 243.237 200.705,243.283 201.420,243.473 201.759 C 243.712 202.186,243.818 201.888,243.818 200.788 C 243.818 198.955,243.713 198.810,243.372 200.171 M145.000 210.800 C 144.443 211.900,144.077 212.800,144.187 212.800 C 144.297 212.800,144.843 211.900,145.400 210.800 C 145.957 209.700,146.323 208.800,146.213 208.800 C 146.103 208.800,145.557 209.700,145.000 210.800 M250.200 214.800 C 250.541 215.460,250.911 216.000,251.021 216.000 C 251.131 216.000,250.941 215.460,250.600 214.800 C 250.259 214.140,249.889 213.600,249.779 213.600 C 249.669 213.600,249.859 214.140,250.200 214.800 M210.267 214.667 C 210.120 214.813,210.000 228.581,210.000 245.261 L 210.000 275.589 196.900 275.703 L 183.800 275.817 197.000 275.808 L 210.200 275.800 210.400 245.100 C 210.510 228.215,210.585 214.400,210.567 214.400 C 210.548 214.400,210.413 214.520,210.267 214.667 M221.199 215.500 C 221.722 216.215,222.213 216.800,222.289 216.800 C 222.593 216.800,221.601 215.300,220.945 214.767 C 220.513 214.416,220.610 214.696,221.199 215.500 M134.600 230.800 C 134.043 231.900,133.677 232.800,133.787 232.800 C 133.897 232.800,134.443 231.900,135.000 230.800 C 135.557 229.700,135.923 228.800,135.813 228.800 C 135.703 228.800,135.157 229.700,134.600 230.800 M258.200 230.000 C 258.541 230.660,258.911 231.200,259.021 231.200 C 259.131 231.200,258.941 230.660,258.600 230.000 C 258.259 229.340,257.889 228.800,257.779 228.800 C 257.669 228.800,257.859 229.340,258.200 230.000 M237.000 246.000 C 237.557 247.100,238.103 248.000,238.213 248.000 C 238.323 248.000,237.957 247.100,237.400 246.000 C 236.843 244.900,236.297 244.000,236.187 244.000 C 236.077 244.000,236.443 244.900,237.000 246.000 M266.200 245.200 C 266.541 245.860,266.911 246.400,267.021 246.400 C 267.131 246.400,266.941 245.860,266.600 245.200 C 266.259 244.540,265.889 244.000,265.779 244.000 C 265.669 244.000,265.859 244.540,266.200 245.200 M124.200 250.800 C 123.643 251.900,123.277 252.800,123.387 252.800 C 123.497 252.800,124.043 251.900,124.600 250.800 C 125.157 249.700,125.523 248.800,125.413 248.800 C 125.303 248.800,124.757 249.700,124.200 250.800 M273.800 259.600 C 274.357 260.700,274.903 261.600,275.013 261.600 C 275.123 261.600,274.757 260.700,274.200 259.600 C 273.643 258.500,273.097 257.600,272.987 257.600 C 272.877 257.600,273.243 258.500,273.800 259.600 M144.600 269.200 C 143.386 271.620,142.483 273.600,142.593 273.600 C 142.703 273.600,143.786 271.620,145.000 269.200 C 146.214 266.780,147.117 264.800,147.007 264.800 C 146.897 264.800,145.814 266.780,144.600 269.200 M113.800 270.800 C 113.243 271.900,112.877 272.800,112.987 272.800 C 113.097 272.800,113.643 271.900,114.200 270.800 C 114.757 269.700,115.123 268.800,115.013 268.800 C 114.903 268.800,114.357 269.700,113.800 270.800 M281.400 274.000 C 281.741 274.660,282.111 275.200,282.221 275.200 C 282.331 275.200,282.141 274.660,281.800 274.000 C 281.459 273.340,281.089 272.800,280.979 272.800 C 280.869 272.800,281.059 273.340,281.400 274.000 M111.398 275.203 C 110.934 275.954,112.188 276.010,127.002 275.900 L 141.800 275.790 126.676 275.695 C 116.720 275.632,111.637 275.463,111.800 275.200 C 111.936 274.980,111.957 274.800,111.847 274.800 C 111.737 274.800,111.535 274.981,111.398 275.203 M252.345 275.705 C 252.513 275.873,259.389 275.963,267.625 275.905 L 282.600 275.799 267.320 275.600 C 258.916 275.490,252.177 275.537,252.345 275.705 M67.600 345.400 C 67.600 345.730,67.780 346.000,68.000 346.000 C 68.220 346.000,68.400 345.730,68.400 345.400 C 68.400 345.070,68.220 344.800,68.000 344.800 C 67.780 344.800,67.600 345.070,67.600 345.400 M325.200 345.400 C 325.200 345.730,325.380 346.000,325.600 346.000 C 325.820 346.000,326.000 345.730,326.000 345.400 C 326.000 345.070,325.820 344.800,325.600 344.800 C 325.380 344.800,325.200 345.070,325.200 345.400 M68.400 348.600 C 68.400 348.930,68.580 349.200,68.800 349.200 C 69.020 349.200,69.200 348.930,69.200 348.600 C 69.200 348.270,69.020 348.000,68.800 348.000 C 68.580 348.000,68.400 348.270,68.400 348.600 M324.400 348.600 C 324.400 348.930,324.580 349.200,324.800 349.200 C 325.020 349.200,325.200 348.930,325.200 348.600 C 325.200 348.270,325.020 348.000,324.800 348.000 C 324.580 348.000,324.400 348.270,324.400 348.600 M71.600 355.800 C 71.600 356.167,71.794 356.402,72.030 356.323 C 72.266 356.245,72.460 356.009,72.460 355.800 C 72.460 355.591,72.266 355.356,72.030 355.277 C 71.794 355.198,71.600 355.433,71.600 355.800 M321.078 355.456 C 320.758 355.775,321.119 356.400,321.624 356.400 C 321.831 356.400,322.000 356.130,322.000 355.800 C 322.000 355.181,321.528 355.005,321.078 355.456 M73.200 358.200 C 73.200 358.530,73.380 358.800,73.600 358.800 C 73.820 358.800,74.000 358.530,74.000 358.200 C 74.000 357.870,73.820 357.600,73.600 357.600 C 73.380 357.600,73.200 357.870,73.200 358.200 M319.600 358.200 C 319.600 358.530,319.780 358.800,320.000 358.800 C 320.220 358.800,320.400 358.530,320.400 358.200 C 320.400 357.870,320.220 357.600,320.000 357.600 C 319.780 357.600,319.600 357.870,319.600 358.200 M80.400 365.600 C 80.400 365.820,80.670 366.000,81.000 366.000 C 81.330 366.000,81.600 365.820,81.600 365.600 C 81.600 365.380,81.330 365.200,81.000 365.200 C 80.670 365.200,80.400 365.380,80.400 365.600 M312.000 365.600 C 312.000 365.820,312.270 366.000,312.600 366.000 C 312.930 366.000,313.200 365.820,313.200 365.600 C 313.200 365.380,312.930 365.200,312.600 365.200 C 312.270 365.200,312.000 365.380,312.000 365.600 M83.056 366.678 C 82.605 367.128,82.781 367.600,83.400 367.600 C 83.730 367.600,84.000 367.431,84.000 367.224 C 84.000 366.719,83.375 366.358,83.056 366.678 M309.856 366.678 C 309.405 367.128,309.581 367.600,310.200 367.600 C 310.530 367.600,310.800 367.431,310.800 367.224 C 310.800 366.719,310.175 366.358,309.856 366.678 M90.000 370.400 C 90.000 370.620,90.270 370.800,90.600 370.800 C 90.930 370.800,91.200 370.620,91.200 370.400 C 91.200 370.180,90.930 370.000,90.600 370.000 C 90.270 370.000,90.000 370.180,90.000 370.400 M302.400 370.400 C 302.400 370.620,302.670 370.800,303.000 370.800 C 303.330 370.800,303.600 370.620,303.600 370.400 C 303.600 370.180,303.330 370.000,303.000 370.000 C 302.670 370.000,302.400 370.180,302.400 370.400 M93.200 371.200 C 93.200 371.420,93.470 371.600,93.800 371.600 C 94.130 371.600,94.400 371.420,94.400 371.200 C 94.400 370.980,94.130 370.800,93.800 370.800 C 93.470 370.800,93.200 370.980,93.200 371.200 M299.200 371.200 C 299.200 371.420,299.470 371.600,299.800 371.600 C 300.130 371.600,300.400 371.420,300.400 371.200 C 300.400 370.980,300.130 370.800,299.800 370.800 C 299.470 370.800,299.200 370.980,299.200 371.200 " stroke="none" fill="#747474" fill-rule="evenodd"></path></g></svg>